# xmcd
#
# Track frame offsets:
#	150
#	46012
#	69950
#	107442
#	148745
#	168305
#	197355
#	228284
#	267724
#	286406
#
# Disc length: 4230 seconds
#
# Revision: 1
# Processed by: cddbd v1.5.1PL0 Copyright (c) Steve Scherf et al.
# Submitted via: audiograbber 1.83.01
#
DISCID=8610840a
DTITLE=Rolling Stones - Pain of Love Outtakes
DYEAR=1900
DGENRE=
TTITLE0=Tie You Up (The Pain Of Love)
TTITLE1=It Won'T Be Long
TTITLE2=Slave
TTITLE3=She Was Hot
TTITLE4=Break Away
TTITLE5=I Think I'M Going Mad
TTITLE6=Dance
TTITLE7=Brown Leaves
TTITLE8=Undercover Of The Night
TTITLE9=She'S So Cold
EXTD=
EXTT0=
EXTT1=
EXTT2=
EXTT3=
EXTT4=
EXTT5=
EXTT6=
EXTT7=
EXTT8=
EXTT9=
PLAYORDER=
